<svg width="298" height="80" viewBox="0 0 298 80" fill="none" xmlns="http://www.w3.org/2000/svg">
<g clip-path="url(#clip0_11712_57305)">
<path d="M78.8015 12.6907H92.6166L97.323 28.2028L102.191 12.6907H113.741L118.199 28.2028L123.343 12.6907H136.407L126.253 45.7596H113.307L108.104 29.5639L103.643 45.7596H90.2029L78.8015 12.6907Z" fill="#E60012"/>
<path d="M171.669 34.2031H183.819C183.819 34.2031 183.753 39.1874 189.015 39.1874C193.231 39.1874 193.104 36.7015 193.104 36.7015C193.104 36.7015 193.231 34.1534 188.587 33.4076C183.384 32.6277 172.293 31.6768 172.293 22.4323C172.293 22.4323 171.3 11.1058 188.336 11.1058C200.41 11.1058 204.502 16.4226 204.502 22.625H192.924C192.679 20.8289 191.19 18.9582 188.646 18.9582C186.102 18.9582 184.69 19.8905 184.69 21.0713C184.69 22.6187 185.671 23.234 192.735 24.1662C200.851 25.8411 205.501 27.8982 205.501 36.2727C205.501 44.6471 196.762 47.3754 188.9 47.3754C181.039 47.3754 171.673 44.7559 171.673 34.2062L171.669 34.2031Z" fill="#E60012"/>
<path d="M220.132 24.0233H208.03C208.03 24.0233 205.461 10.6646 225.785 10.6646C225.785 10.6646 240.857 9.79448 241.663 21.5218C242.467 33.2491 240.844 41.2196 244.322 45.7813H231.36C231.36 45.7813 230.184 44.2307 229.567 42.7391C229.567 42.7391 226.095 46.8347 218.659 46.8347C211.222 46.8347 207.037 42.4936 207.037 36.9096C207.037 31.3256 210.276 27.227 220.644 25.3657C224.789 24.6199 228.506 24.1258 228.695 21.8263C228.878 19.5331 225.72 19.098 224.916 19.098C224.916 19.098 220.176 18.7531 220.132 24.0202V24.0233ZM221.445 33.3051C218.597 34.548 220.021 36.7201 220.021 36.7201C220.021 36.7201 221.445 39.0786 224.854 38.2085C229.75 36.9065 229.378 30.3903 229.378 30.3903C229.378 30.3903 224.299 32.0652 221.445 33.3051Z" fill="#E60012"/>
<path d="M298 0.0124512H284.691V9.32843H298V0.0124512Z" fill="#E60012"/>
<path d="M298 12.6813H284.691V45.7595H298V12.6813Z" fill="#E60012"/>
<path d="M258.72 45.772H245.417V0H258.72V20.5399L265.48 12.6751H281.154L269.566 25.0146L283.105 45.7596H267.745L260.433 34.6133L258.72 36.4467V45.772Z" fill="#E60012"/>
<path d="M0 0.00622559H13.8709V13.946L27.7512 0.00622559H45.103L27.3882 18.2436L46.4184 45.7658H28.3685L17.4542 28.5104L13.8647 32.2237V45.7751H0V0.00622559Z" fill="#E60012"/>
<path d="M57.888 24.0233H45.7917C45.7917 24.0233 43.226 10.6646 63.5406 10.6646C63.5406 10.6646 78.6215 9.79448 79.4281 21.5218C80.2254 33.2491 78.5998 41.2196 82.0838 45.7813H69.1157C69.1157 45.7813 67.943 44.2307 67.3194 42.7391C67.3194 42.7391 63.854 46.8347 56.4206 46.8347C48.9872 46.8347 44.802 42.4936 44.802 36.9096C44.802 31.3256 48.0347 27.227 58.3999 25.3657C62.551 24.6199 66.2708 24.1258 66.46 21.8263C66.6431 19.5331 63.4848 19.098 62.6813 19.098C62.6813 19.098 57.9408 18.7531 57.8911 24.0202L57.888 24.0233ZM59.2065 33.3051C56.3585 34.548 57.7825 36.7201 57.7825 36.7201C57.7825 36.7201 59.2065 39.0786 62.613 38.2085C67.5086 36.9065 67.1363 30.3903 67.1363 30.3903C67.1363 30.3903 62.0515 32.0652 59.2034 33.3051H59.2065Z" fill="#E60012"/>
<path d="M147.985 24.0233H135.886C135.886 24.0233 133.317 10.6646 153.638 10.6646C153.638 10.6646 168.716 9.79448 169.519 21.5218C170.323 33.2491 168.697 41.2196 172.181 45.7813H159.216C159.216 45.7813 158.037 44.2307 157.42 42.7391C157.42 42.7391 153.954 46.8347 146.521 46.8347C139.088 46.8347 134.899 42.4936 134.899 36.9096C134.899 31.3256 138.132 27.227 148.5 25.3657C152.651 24.6199 156.371 24.1258 156.551 21.8263C156.74 19.5331 153.579 19.098 152.779 19.098C152.779 19.098 148.038 18.7531 147.989 24.0202L147.985 24.0233ZM149.304 33.3051C146.459 34.548 147.883 36.7201 147.883 36.7201C147.883 36.7201 149.304 39.0786 152.714 38.2085C157.609 36.9065 157.24 30.3903 157.24 30.3903C157.24 30.3903 152.155 32.0652 149.304 33.3051Z" fill="#E60012"/>
<path d="M13.8647 62.7104H17.2929V76.7808H25.2382V79.6458H13.8647V62.7104Z" fill="white"/>
<path d="M26.8018 73.5584C26.8018 69.9569 29.2372 67.1633 32.7863 67.1633C36.6892 67.1633 38.7678 70.1464 38.7678 74.4813H29.9724C30.2082 76.3519 31.2475 77.5141 33.0686 77.5141C34.322 77.5141 35.0542 76.9454 35.411 76.0225H38.5785C38.1287 78.1791 36.2145 80.0031 33.0935 80.0031C29.0727 80.0031 26.8018 77.1847 26.8018 73.5615V73.5584ZM30.0159 72.2533H35.4079C35.3148 70.7151 34.2972 69.6492 32.8298 69.6492C31.1265 69.6492 30.2982 70.6685 30.0159 72.2533Z" fill="white"/>
<path d="M40.6604 67.4927H42.3388V63.7017H45.4847V67.4927H47.5664V69.6244H45.4847V76.066C45.4847 76.9671 45.9811 77.2748 46.6915 77.2748C47.0948 77.2748 47.6377 77.2499 47.6377 77.2499V79.6178C47.6377 79.6178 46.9056 79.6644 45.6274 79.6644C44.0669 79.6644 42.3419 79.0491 42.3419 76.7496V69.6213H40.6635V67.4896L40.6604 67.4927Z" fill="white"/>
<path d="M56.3865 67.4927H58.0649V63.7017H61.2107V67.4927H63.2925V69.6244H61.2107V76.066C61.2107 76.9671 61.7071 77.2748 62.4176 77.2748C62.8209 77.2748 63.3638 77.2499 63.3638 77.2499V79.6178C63.3638 79.6178 62.6316 79.6644 61.3534 79.6644C59.7929 79.6644 58.0649 79.0491 58.0649 76.7496V69.6213H56.3865V67.4896V67.4927Z" fill="white"/>
<path d="M69.8417 69.0805H69.9131C70.788 67.8003 71.7807 67.1633 73.4374 67.1633C75.9442 67.1633 77.6226 69.0588 77.6226 71.7094V79.6426H74.4054V72.1817C74.4054 70.8797 73.6484 69.9568 72.3019 69.9568C70.8841 69.9568 69.8417 71.0941 69.8417 72.7504V79.6426H66.6245V62.7073H69.8417V69.0774V69.0805Z" fill="white"/>
<path d="M80.1294 73.5584C80.1294 69.9569 82.5648 67.1633 86.114 67.1633C90.0168 67.1633 92.0954 70.1464 92.0954 74.4813H83.3001C83.5359 76.3519 84.5752 77.5141 86.3963 77.5141C87.6497 77.5141 88.3818 76.9454 88.7386 76.0225H91.9062C91.4563 78.1791 89.5421 80.0031 86.4211 80.0031C82.4004 80.0031 80.1294 77.1847 80.1294 73.5615V73.5584ZM83.3435 72.2533H88.7355C88.6424 70.7151 87.6248 69.6492 86.1574 69.6492C84.4542 69.6492 83.6258 70.6685 83.3435 72.2533Z" fill="white"/>
<path d="M112.55 77.3711H112.503C111.343 79.3133 109.761 80 107.75 80C105.197 80 103.211 79.0771 101.815 77.5358C100.419 75.9728 99.6157 73.7945 99.6157 71.2371C99.6157 68.4187 100.609 65.9545 102.383 64.3201C103.754 63.0647 105.551 62.3779 107.822 62.3779C112.078 62.3779 114.514 64.724 115.056 68.0396H111.7C111.321 66.4051 110.068 65.2212 107.893 65.2212C104.701 65.2212 103.115 67.8749 103.115 71.2371C103.115 74.5993 104.936 77.2282 107.843 77.2282C110.468 77.2282 112.196 75.2612 112.196 73.3905V73.2973H108.129V70.6436H115.246V79.6426H112.668L112.55 77.368V77.3711Z" fill="white"/>
<path d="M117.777 73.58C117.777 69.9568 120.355 67.1602 124.116 67.1602C127.876 67.1602 130.454 69.9537 130.454 73.58C130.454 77.2064 127.876 79.9999 124.116 79.9999C120.355 79.9999 117.777 77.2064 117.777 73.58ZM127.187 73.58C127.187 71.2122 126.076 69.5995 124.112 69.5995C122.149 69.5995 121.038 71.2091 121.038 73.58C121.038 75.951 122.127 77.5358 124.112 77.5358C126.098 77.5358 127.187 75.9479 127.187 73.58Z" fill="white"/>
<path d="M132.464 73.58C132.464 69.9568 135.042 67.1602 138.802 67.1602C142.562 67.1602 145.141 69.9537 145.141 73.58C145.141 77.2064 142.562 79.9999 138.802 79.9999C135.042 79.9999 132.464 77.2064 132.464 73.58ZM141.874 73.58C141.874 71.2122 140.763 69.5995 138.799 69.5995C136.835 69.5995 135.725 71.2091 135.725 73.58C135.725 75.951 136.814 77.5358 138.799 77.5358C140.785 77.5358 141.874 75.9479 141.874 73.58Z" fill="white"/>
<path d="M147.198 73.5801C147.198 69.789 149.351 67.1602 152.375 67.1602C154.079 67.1602 155.143 67.9432 155.804 68.9594H155.875V62.7073H159.092V79.6426H155.996V78.0547H155.949C155.239 79.2169 154.032 79.9968 152.332 79.9968C149.282 79.9968 147.201 77.5109 147.201 73.577L147.198 73.5801ZM155.946 73.6515C155.946 71.3303 155.189 69.7673 153.132 69.7673C151.358 69.7673 150.461 71.3303 150.461 73.5801C150.461 75.8298 151.383 77.2996 153.039 77.2996C154.957 77.2996 155.949 75.8795 155.949 73.6515H155.946Z" fill="white"/>
<path d="M166.423 62.7104H180.021V65.6003H174.936V79.6458H171.508V65.6003H166.423V62.7104Z" fill="white"/>
<path d="M182.457 62.7104H185.674V65.6003H182.457V62.7104ZM182.457 67.4927H185.674V79.6427H182.457V67.4927Z" fill="white"/>
<path d="M189.434 67.4926H192.533V69.1271H192.605C193.268 68.0147 194.45 67.1602 196.129 67.1602C197.665 67.1602 198.896 68.0116 199.486 69.2918H199.532C200.361 67.965 201.636 67.1602 203.174 67.1602C205.728 67.1602 207.17 68.8195 207.17 71.4701V79.6426H203.953V72.017C203.953 70.6435 203.268 69.932 202.086 69.932C200.736 69.932 199.911 70.9729 199.911 72.5857V79.6426H196.694V72.017C196.694 70.6435 196.008 69.932 194.826 69.932C193.526 69.932 192.651 70.9729 192.651 72.5857V79.6426H189.434V67.4926Z" fill="white"/>
<path d="M209.724 73.5584C209.724 69.9569 212.159 67.1633 215.708 67.1633C219.611 67.1633 221.69 70.1464 221.69 74.4813H212.894C213.13 76.3519 214.169 77.5141 215.991 77.5141C217.244 77.5141 217.976 76.9454 218.333 76.0225H221.5C221.051 78.1791 219.136 80.0031 216.015 80.0031C211.995 80.0031 209.724 77.1847 209.724 73.5615V73.5584ZM212.941 72.2533H218.333C218.24 70.7151 217.222 69.6492 215.755 69.6492C214.052 69.6492 213.223 70.6685 212.941 72.2533Z" fill="white"/>
<path d="M223.914 75.7118H226.893C227.107 77.1101 228.099 77.7254 229.542 77.7254C230.985 77.7254 231.763 77.1816 231.763 76.3271C231.763 75.168 230.228 75.0468 228.571 74.7174C226.396 74.2917 224.268 73.6982 224.268 71.0476C224.268 68.397 226.443 67.1633 229.21 67.1633C232.403 67.1633 234.177 68.7512 234.413 71.1905H231.506C231.363 69.8885 230.538 69.4131 229.164 69.4131C227.91 69.4131 227.082 69.8854 227.082 70.7617C227.082 71.8027 228.689 71.899 230.417 72.2533C232.449 72.679 234.698 73.2476 234.698 76.0909C234.698 78.5302 232.617 80 229.592 80C226.067 80 224.107 78.294 223.917 75.7118H223.914Z" fill="white"/>
<path d="M249.571 73.1078H246.782V79.6458H243.236V62.7104H250.66C252.624 62.7104 254.088 63.2791 255.081 64.2983C256.027 65.2709 256.595 66.4549 256.595 67.9682C256.595 70.336 255.367 71.9954 253.238 72.7038L257.47 79.6427H253.496L249.571 73.1047V73.1078ZM246.779 70.3112H250.325C252.121 70.3112 253.068 69.4815 253.068 67.9899C253.068 66.4984 252.075 65.6936 250.372 65.6936H246.776V70.3112H246.779Z" fill="white"/>
<path d="M258.816 73.58C258.816 69.9568 261.395 67.1602 265.155 67.1602C268.915 67.1602 271.493 69.9537 271.493 73.58C271.493 77.2064 268.915 79.9999 265.155 79.9999C261.395 79.9999 258.816 77.2064 258.816 73.58ZM268.229 73.58C268.229 71.2122 267.118 69.5995 265.155 69.5995C263.191 69.5995 262.08 71.2091 262.08 73.58C262.08 75.951 263.169 77.5358 265.155 77.5358C267.14 77.5358 268.229 75.9479 268.229 73.58Z" fill="white"/>
<path d="M274.449 62.7104H277.667V79.6458H274.449V62.7104Z" fill="white"/>
<path d="M281.473 62.7104H284.691V79.6458H281.473V62.7104Z" fill="white"/>
</g>
<defs>
<clipPath id="clip0_11712_57305">
<rect width="149" height="40" fill="white" transform="scale(2)"/>
</clipPath>
</defs>
</svg>
