<svg width="80" height="80" viewBox="0 0 80 80" fill="none" xmlns="http://www.w3.org/2000/svg">
<path d="M63.3333 53.6661C65.1666 53.6661 66.6673 55.1668 66.6673 57.0001C66.6672 58.8334 65.1666 60.3341 63.3333 60.3341H16.6673C14.834 60.3341 13.3334 58.8334 13.3333 57.0001C13.3333 55.1668 14.834 53.6661 16.6673 53.6661H63.3333ZM63.3333 36.8341C65.1665 36.8341 66.667 38.333 66.6673 40.1661C66.6673 41.9995 65.1666 43.5001 63.3333 43.5001H16.6673C14.834 43.5001 13.3333 41.9995 13.3333 40.1661C13.3336 38.333 14.8341 36.8341 16.6673 36.8341H63.3333ZM63.3333 20.0001C65.1666 20.0001 66.6673 21.5008 66.6673 23.3341C66.6669 25.1671 65.1664 26.6661 63.3333 26.6661H16.6673C14.8342 26.6661 13.3338 25.1671 13.3333 23.3341C13.3333 21.5008 14.834 20.0001 16.6673 20.0001H63.3333Z" fill="white"/>
</svg>
